<svg id="Layer_1" xmlns="http://www.w3.org/2000/svg" viewBox="0 0 80 68"><style>.st0{fill:#9bdb52}.st1{fill:#6843a3}</style><path class="st0" d="M75.4 52.3c-.1 0-.2-.1-.2-.1l-17.9-11c-.8-.5-1.3-1.4-1.3-2.4s.6-1.8 1.5-2.3c3.1-1.9-15.7-1.9-14.1 0 .6.7 1.4 1.3 1.5 2.3 0 1-.4 1.9-1.3 2.4l-17.9 11c-2.4 1.2-3.8 3.4-3.8 5.8v1.9H79V58c0-2.5-1.4-4.7-3.6-5.7z"/><circle class="st0" cx="50.5" cy="20.7" r="18.8"/><path class="st1" d="M54.5 60.7c-.1 0-.2-.1-.2-.1l-17.9-11c-.8-.5-1.3-1.4-1.3-2.4s.6-1.8 1.5-2.3c3.1-1.9-15.7-1.9-14.1 0 .6.7 1.4 1.3 1.5 2.3 0 1-.4 1.9-1.3 2.4l-17.9 11C2.4 61.7 1 63.9 1 66.3v1.9h57.1v-1.9c0-2.4-1.4-4.6-3.6-5.6z"/><circle class="st1" cx="29.5" cy="29" r="18.8"/></svg>